<svg width="145" height="40" viewBox="0 0 145 40" fill="none" xmlns="http://www.w3.org/2000/svg">
<g clip-path="url(#clip0_1219_1944)">
<path d="M22.344 40H15.4L0.336 0.799997H9.352L19.04 27.176L28.728 0.799997H37.464L22.344 40ZM41.9331 0.799997H50.3331V32.104H63.9971V40H41.9331V0.799997ZM82.3572 0.799997H89.8052L105.541 40H96.7492L93.4452 31.544H78.4932L75.1892 40H66.5652L82.3572 0.799997ZM85.9412 11.496L81.0692 24.32H90.9252L85.9412 11.496ZM143.336 20.4C143.336 31.432 134.376 40 123.4 40H110.128V0.799997H123.4C134.376 0.799997 143.336 9.368 143.336 20.4ZM134.712 20.4C134.712 13.904 129.672 8.696 123.176 8.696H118.528V32.104H123.176C129.672 32.104 134.712 26.896 134.712 20.4Z" fill="white"/>
</g>
<defs>
<clipPath id="clip0_1219_1944">
<rect width="145" height="40" fill="white"/>
</clipPath>
</defs>
</svg>
